<svg width="403" height="202" xmlns="http://www.w3.org/2000/svg" xmlns:xlink="http://www.w3.org/1999/xlink" overflow="hidden"><defs><clipPath id="clip0"><rect x="0" y="0" width="403" height="202"/></clipPath></defs><g clip-path="url(#clip0)"><rect x="0" y="0" width="403" height="202.418" fill="#FFFFFF"/><rect x="61" y="61.1261" width="29.0001" height="22.0455" fill="#FFFFFF"/><text font-family="Times New Roman,Times New Roman_MSFontService,sans-serif" font-style="italic" font-weight="400" font-size="9" transform="matrix(1 0 0 1.00207 72.1845 73)">m</text><rect x="119" y="1.00207" width="41.9999" height="26.0537" fill="#FFFFFF"/><text font-family="Times New Roman,Times New Roman_MSFontService,sans-serif" font-weight="400" font-size="9" transform="matrix(1 0 0 1.00207 124.522 12)">Boolean</text><text font-family="Times New Roman,Times New Roman_MSFontService,sans-serif" font-weight="400" font-size="9" transform="matrix(1 0 0 1.00207 128.607 24)">oracle</text><rect x="168" y="13.0269" width="41" height="21.0434" fill="#FFFFFF"/><text font-family="Times New Roman,Times New Roman_MSFontService,sans-serif" font-style="italic" font-weight="400" font-size="9" transform="matrix(1 0 0 1.00207 180.825 24)">CU</text><text font-family="Times New Roman,Times New Roman_MSFontService,sans-serif" font-style="italic" font-weight="400" font-size="6" transform="matrix(1 0 0 1.00207 193.653 25)">s</text><rect x="217" y="1.00207" width="42" height="26.0537" fill="#FFFFFF"/><text font-family="Times New Roman,Times New Roman_MSFontService,sans-serif" font-weight="400" font-size="9" transform="matrix(1 0 0 1.00207 222.281 12)">Boolean</text><text font-family="Times New Roman,Times New Roman_MSFontService,sans-serif" font-weight="400" font-size="9" transform="matrix(1 0 0 1.00207 226.366 24)">oracle</text><rect x="266" y="13.0269" width="40.9999" height="21.0434" fill="#FFFFFF"/><text font-family="Times New Roman,Times New Roman_MSFontService,sans-serif" font-style="italic" font-weight="400" font-size="9" transform="matrix(1 0 0 1.00207 278.91 24)">CU</text><text font-family="Times New Roman,Times New Roman_MSFontService,sans-serif" font-style="italic" font-weight="400" font-size="6" transform="matrix(1 0 0 1.00207 291.738 25)">s</text><rect x="60" y="32.0661" width="28.0001" height="21.0434" fill="#FFFFFF"/><text font-family="Times New Roman,Times New Roman_MSFontService,sans-serif" font-style="italic" font-weight="400" font-size="9" transform="matrix(1 0 0 1.00207 71.8763 43)">n</text><rect x="18" y="39.0807" width="44" height="22.0454" fill="#FFFFFF"/><text font-family="Times New Roman,Times New Roman_MSFontService,sans-serif" font-weight="400" font-size="9" transform="matrix(1 0 0 1.00207 22.731 51)">inputs |0</text><text font-family="Cambria Math,Cambria Math_MSFontService,sans-serif" font-weight="400" font-size="9" transform="matrix(1 0 0 1.00207 54.5511 51)">⟩</text><path d="M63.5 48.6003 389.765 48.6004" stroke="#000000" stroke-width="1.33278" stroke-miterlimit="8" fill="none" fill-rule="evenodd"/><path d="M117.5 38.9138C117.5 34.8552 120.783 31.5652 124.833 31.5652L154.167 31.5652C158.217 31.5652 161.5 34.8552 161.5 38.9138L161.5 108.39C161.5 112.449 158.217 115.739 154.167 115.739L124.833 115.739C120.783 115.739 117.5 112.449 117.5 108.39Z" stroke="#FF0000" stroke-width="0.999587" stroke-linejoin="round" stroke-miterlimit="10" stroke-dasharray="3.99835 2.99876" fill="none" fill-rule="evenodd"/><path d="M216.5 39.0809C216.5 34.93 219.858 31.5652 224 31.5652L254 31.5652C258.142 31.5652 261.5 34.93 261.5 39.0809L261.5 108.223C261.5 112.374 258.142 115.739 254 115.739L224 115.739C219.858 115.739 216.5 112.374 216.5 108.223Z" stroke="#FF0000" stroke-width="0.999587" stroke-linejoin="round" stroke-miterlimit="10" stroke-dasharray="3.99835 2.99876" fill="none" fill-rule="evenodd"/><rect x="83.5" y="35.5733" width="28.0001" height="27.0559" stroke="#000000" stroke-width="1.33278" stroke-miterlimit="8" fill="#FFFFFF"/><text font-family="Times New Roman,Times New Roman_MSFontService,sans-serif" font-weight="400" font-size="9" transform="matrix(1 0 0 1.00207 82.8009 52)"></text><text font-family="Times New Roman,Times New Roman_MSFontService,sans-serif" font-weight="400" font-size="9" transform="matrix(1 0 0 1.00207 85.1332 52)"></text><text font-family="Times New Roman,Times New Roman_MSFontService,sans-serif" font-weight="400" font-size="9" transform="matrix(1 0 0 1.00207 87.4656 52)">H</text><text font-family="Cambria Math,Cambria Math_MSFontService,sans-serif" font-weight="400" font-size="9" transform="matrix(1 0 0 1.00207 94.1295 49)">⊗</text><text font-family="Times New Roman,Times New Roman_MSFontService,sans-serif" font-style="italic" font-weight="400" font-size="9" transform="matrix(1 0 0 1.00207 103.459 49)">n</text><rect x="11" y="68.1406" width="51" height="21.0434" fill="#FFFFFF"/><text font-family="Times New Roman,Times New Roman_MSFontService,sans-serif" font-weight="400" font-size="9" transform="matrix(1 0 0 1.00207 16.1588 79)">ancillae |0</text><text font-family="Cambria Math,Cambria Math_MSFontService,sans-serif" font-weight="400" font-size="9" transform="matrix(1 0 0 1.00207 54.3097 79)">⟩</text><path d="M139.5 84.6746 139.5 100.377" stroke="#000000" stroke-width="1.33278" stroke-miterlimit="8" fill="none" fill-rule="evenodd"/><path d="M130.5 103.213C130.5 98.5088 134.529 94.6954 139.5 94.6954 144.471 94.6954 148.5 98.5088 148.5 103.213 148.5 107.917 144.471 111.731 139.5 111.731 134.529 111.731 130.5 107.917 130.5 103.213Z" stroke="#000000" stroke-width="1.33278" stroke-miterlimit="8" fill="#FFFFFF" fill-rule="evenodd"/><path d="M139.5 94.6954 139.5 111.892" stroke="#000000" stroke-width="1.33278" stroke-miterlimit="8" fill="none" fill-rule="evenodd"/><path d="M0 0 4.24339 6.19712" stroke="#000000" stroke-width="1.33278" stroke-miterlimit="8" fill="none" fill-rule="evenodd" transform="matrix(1 0 0 -1.00207 65.5001 51.804)"/><path d="M321 70.6457C320.172 70.6457 319.5 69.9727 319.5 69.1426 319.5 68.3125 320.172 67.6395 321 67.6395 321.828 67.6395 322.5 68.3125 322.5 69.1426 322.5 69.9727 321.828 70.6457 321 70.6457Z" stroke="#000000" stroke-width="1.33554" stroke-miterlimit="8" fill-rule="evenodd"/><path d="M330 70.6457C329.172 70.6457 328.5 69.9727 328.5 69.1425 328.5 68.3124 329.172 67.6394 330 67.6394 330.828 67.6394 331.5 68.3124 331.5 69.1425 331.5 69.9727 330.828 70.6457 330 70.6457Z" stroke="#000000" stroke-width="1.33554" stroke-miterlimit="8" fill-rule="evenodd"/><path d="M338.5 70.6458C337.395 70.6458 336.5 69.9728 336.5 69.1427 336.5 68.3125 337.395 67.6395 338.5 67.6395 339.605 67.6395 340.5 68.3125 340.5 69.1427 340.5 69.9728 339.605 70.6458 338.5 70.6458Z" stroke="#000000" stroke-width="1.33554" stroke-miterlimit="8" fill-rule="evenodd"/><path d="M238.5 84.6746 238.5 100.346" stroke="#000000" stroke-width="1.33278" stroke-miterlimit="8" fill="none" fill-rule="evenodd"/><path d="M229.5 103.714C229.5 98.7331 233.306 94.6954 238 94.6954 242.694 94.6954 246.5 98.7331 246.5 103.714 246.5 108.695 242.694 112.733 238 112.733 233.306 112.733 229.5 108.695 229.5 103.714Z" stroke="#000000" stroke-width="1.33278" stroke-miterlimit="8" fill="#FFFFFF" fill-rule="evenodd"/><path d="M238.5 94.6954 238.5 111.848" stroke="#000000" stroke-width="1.33278" stroke-miterlimit="8" fill="none" fill-rule="evenodd"/><path d="M63.5 77.6602 389.765 77.6603" stroke="#000000" stroke-width="1.33278" stroke-miterlimit="8" fill="none" fill-rule="evenodd"/><path d="M211.5 132.774C211.5 136.648 210.978 139.788 210.333 139.788L165.167 139.788C164.522 139.788 164 142.929 164 146.803 164 142.929 163.478 139.788 162.833 139.788L117.667 139.788C117.022 139.788 116.5 136.648 116.5 132.774" stroke="#000000" stroke-width="1.00165" stroke-miterlimit="8" fill="none" fill-rule="evenodd"/><path d="M313.5 132.774C313.5 136.648 312.978 139.788 312.333 139.788L266.167 139.788C265.522 139.788 265 142.929 265 146.803 265 142.929 264.478 139.788 263.833 139.788L217.667 139.788C217.022 139.788 216.5 136.648 216.5 132.774" stroke="#000000" stroke-width="1.00165" stroke-miterlimit="8" fill="none" fill-rule="evenodd"/><path d="M0 0 4.24339 6.19712" stroke="#000000" stroke-width="1.33278" stroke-miterlimit="8" fill="none" fill-rule="evenodd" transform="matrix(1 0 0 -1.00207 65.5001 80.8639)"/><rect x="19" y="93.1922" width="40.9999" height="22.0455" fill="#FFFFFF"/><text font-family="Times New Roman,Times New Roman_MSFontService,sans-serif" font-weight="400" font-size="9" transform="matrix(1 0 0 1.00207 21.2285 105)">output |0</text><text font-family="Cambria Math,Cambria Math_MSFontService,sans-serif" font-weight="400" font-size="9" transform="matrix(1 0 0 1.00207 54.0482 105)">⟩</text><path d="M321 138.786C320.172 138.786 319.5 137.889 319.5 136.782 319.5 135.675 320.172 134.778 321 134.778 321.828 134.778 322.5 135.675 322.5 136.782 322.5 137.889 321.828 138.786 321 138.786Z" stroke="#000000" stroke-width="1.33554" stroke-miterlimit="8" fill-rule="evenodd"/><path d="M330 138.786C329.172 138.786 328.5 137.889 328.5 136.782 328.5 135.675 329.172 134.778 330 134.778 330.828 134.778 331.5 135.675 331.5 136.782 331.5 137.889 330.828 138.786 330 138.786Z" stroke="#000000" stroke-width="1.33554" stroke-miterlimit="8" fill-rule="evenodd"/><path d="M338.5 138.786C337.395 138.786 336.5 137.889 336.5 136.782 336.5 135.675 337.395 134.778 338.5 134.778 339.605 134.778 340.5 135.675 340.5 136.782 340.5 137.889 339.605 138.786 338.5 138.786Z" stroke="#000000" stroke-width="1.33554" stroke-miterlimit="8" fill-rule="evenodd"/><rect x="60" y="112.231" width="28.0001" height="22.0455" fill="#FFFFFF"/><text font-family="Times New Roman,Times New Roman_MSFontService,sans-serif" font-style="italic" font-weight="400" font-size="9" transform="matrix(1 0 0 1.00207 71.8763 124)">n</text><path d="M63.5 103.714 389.765 103.714" stroke="#000000" stroke-width="1.33278" stroke-miterlimit="8" fill="none" fill-rule="evenodd"/><path d="M167.5 38.7468C167.5 34.7805 170.709 31.5652 174.667 31.5652L203.333 31.5652C207.291 31.5652 210.5 34.7805 210.5 38.7468L210.5 108.557C210.5 112.523 207.291 115.739 203.333 115.739L174.667 115.739C170.709 115.739 167.5 112.523 167.5 108.557Z" stroke="#0070C0" stroke-width="0.999587" stroke-linejoin="round" stroke-miterlimit="10" stroke-dasharray="3.99835 2.99876" fill="none" fill-rule="evenodd"/><path d="M186.5 103.714C186.5 102.607 187.395 101.71 188.5 101.71 189.605 101.71 190.5 102.607 190.5 103.714 190.5 104.821 189.605 105.718 188.5 105.718 187.395 105.718 186.5 104.821 186.5 103.714Z" stroke="#000000" stroke-width="1.33278" stroke-miterlimit="8" fill-rule="evenodd"/><path d="M188.5 61.6272 188.5 102.897" stroke="#000000" stroke-width="1.33278" stroke-miterlimit="8" fill="none" fill-rule="evenodd"/><rect x="171.5" y="35.5733" width="34" height="27.0559" stroke="#000000" stroke-width="1.33278" stroke-miterlimit="8" fill="#FFFFFF"/><text font-family="Times New Roman,Times New Roman_MSFontService,sans-serif" font-style="italic" font-weight="400" font-size="9" transform="matrix(1 0 0 1.00207 183.267 52)">U</text><text font-family="Times New Roman,Times New Roman_MSFontService,sans-serif" font-style="italic" font-weight="400" font-size="6" transform="matrix(1 0 0 1.00207 189.93 53)">s</text><path d="M265.5 38.7468C265.5 34.7805 268.709 31.5652 272.667 31.5652L301.333 31.5652C305.291 31.5652 308.5 34.7805 308.5 38.7468L308.5 107.555C308.5 111.521 305.291 114.737 301.333 114.737L272.667 114.737C268.709 114.737 265.5 111.521 265.5 107.555Z" stroke="#0070C0" stroke-width="0.999587" stroke-linejoin="round" stroke-miterlimit="10" stroke-dasharray="3.99835 2.99876" fill="none" fill-rule="evenodd"/><path d="M285.5 103.714C285.5 102.607 286.395 101.71 287.5 101.71 288.605 101.71 289.5 102.607 289.5 103.714 289.5 104.821 288.605 105.718 287.5 105.718 286.395 105.718 285.5 104.821 285.5 103.714Z" stroke="#000000" stroke-width="1.33278" stroke-miterlimit="8" fill-rule="evenodd"/><path d="M287.5 62.6292 287.5 103.899" stroke="#000000" stroke-width="1.33278" stroke-miterlimit="8" fill="none" fill-rule="evenodd"/><rect x="270.5" y="35.5733" width="33" height="28.058" stroke="#000000" stroke-width="1.33278" stroke-miterlimit="8" fill="#FFFFFF"/><text font-family="Times New Roman,Times New Roman_MSFontService,sans-serif" font-style="italic" font-weight="400" font-size="9" transform="matrix(1 0 0 1.00207 282.006 53)">U</text><text font-family="Times New Roman,Times New Roman_MSFontService,sans-serif" font-style="italic" font-weight="400" font-size="6" transform="matrix(1 0 0 1.00207 288.67 54)">s</text><path d="M369 62.6292 369 122.274 368 122.274 368 62.6292ZM372.498 120.939 368.5 128.952 364.502 120.939Z"/><rect x="340.5" y="35.5733" width="56.9999" height="27.0559" stroke="#000000" stroke-width="1.33278" stroke-miterlimit="8" fill="#FFFFFF"/><text font-family="Times New Roman,Times New Roman_MSFontService,sans-serif" font-weight="400" font-size="8" transform="matrix(1 0 0 1.00207 346.833 52)">Measurement</text><rect x="221.5" y="35.5733" width="34" height="54.1117" stroke="#000000" stroke-width="1.33278" stroke-miterlimit="8" fill="#FFFFFF"/><text font-family="Times New Roman,Times New Roman_MSFontService,sans-serif" font-style="italic" font-weight="400" font-size="9" transform="matrix(1 0 0 1.00207 232.381 66)">U</text><text font-family="Times New Roman,Times New Roman_MSFontService,sans-serif" font-style="italic" font-weight="400" font-size="6" transform="matrix(1 0 0 1.00207 239.044 67)">ω</text><rect x="122.5" y="35.5733" width="34" height="54.1117" stroke="#000000" stroke-width="1.33278" stroke-miterlimit="8" fill="#FFFFFF"/><text font-family="Times New Roman,Times New Roman_MSFontService,sans-serif" font-style="italic" font-weight="400" font-size="9" transform="matrix(1 0 0 1.00207 133.664 65)">U</text><text font-family="Times New Roman,Times New Roman_MSFontService,sans-serif" font-style="italic" font-weight="400" font-size="6" transform="matrix(1 0 0 1.00207 140.328 66)">ω</text><rect x="4.00003" y="117.242" width="55.9999" height="22.0455" fill="#FFFFFF"/><text font-family="Times New Roman,Times New Roman_MSFontService,sans-serif" font-weight="400" font-size="9" transform="matrix(1 0 0 1.00207 8.32427 129)">classical bits</text><path d="M0 0 4.24339 6.19712" stroke="#000000" stroke-width="1.33278" stroke-miterlimit="8" fill="none" fill-rule="evenodd" transform="matrix(1 0 0 -1.00207 65.5001 131.969)"/><path d="M63.5 128.766 389.765 128.766" stroke="#000000" stroke-width="1.33278" stroke-miterlimit="8" fill="none" fill-rule="evenodd"/><rect x="209" y="145.3" width="112" height="22.0455" fill="#FFFFFF"/><text font-family="Times New Roman,Times New Roman_MSFontService,sans-serif" font-weight="400" font-size="9" transform="matrix(1 0 0 1.00207 231.364 157)">Grover iteration 2</text><rect x="108" y="145.3" width="112" height="22.0455" fill="#FFFFFF"/><text font-family="Times New Roman,Times New Roman_MSFontService,sans-serif" font-weight="400" font-size="9" transform="matrix(1 0 0 1.00207 130.368 157)">Grover iteration 1</text><rect x="141" y="166.343" width="176" height="22.0455" fill="#FFFFFF"/><text font-family="Times New Roman,Times New Roman_MSFontService,sans-serif" font-style="italic" font-weight="400" font-size="9" transform="matrix(1 0 0 1.00207 177.051 187)">O</text><path d="M65.0832 3.98044C66.2873 5.01169 67.2431 6.54977 67.9506 8.59469 68.6581 10.6396 69.0119 12.9218 69.0119 15.4414 69.0119 17.9228 68.6581 20.2014 67.9506 22.2771 67.2431 24.3527 66.2873 25.9033 65.0832 26.9287L64.8767 26.6035C65.9167 25.5459 66.718 24.0151 67.2805 22.0112 67.843 20.0073 68.1242 17.8188 68.1242 15.4458 68.1242 13.0171 67.8415 10.8183 67.2761 8.84958 66.7106 6.88083 65.9108 5.36764 64.8767 4.31003ZM42.8512 3.98044 43.0577 4.31003C42.0206 5.36764 41.2201 6.88083 40.6561 8.84958 40.0922 10.8183 39.8102 13.0171 39.8102 15.4458 39.8102 17.8188 40.0914 20.0073 40.6539 22.0112 41.2164 24.0151 42.0177 25.5459 43.0577 26.6035L42.8512 26.9287C41.6471 25.9033 40.6913 24.3527 39.9838 22.2771 39.2762 20.2014 38.9225 17.9228 38.9225 15.4414 38.9225 12.9218 39.2762 10.6396 39.9838 8.59469 40.6913 6.54977 41.6471 5.01169 42.8512 3.98044Z" fill-rule="evenodd" transform="matrix(1 0 0 1.00207 145.531 168.697)"/><text font-family="Times New Roman,Times New Roman_MSFontService,sans-serif" font-weight="400" font-size="9" transform="matrix(1 0 0 1.00207 189.066 181)">π</text><text font-family="Times New Roman,Times New Roman_MSFontService,sans-serif" font-weight="400" font-size="9" transform="matrix(1 0 0 1.00207 189.066 191)">4</text><path d="M44 15 49 15 49 16 44 16Z" fill-rule="evenodd" transform="matrix(1 0 0 1.00207 145.531 168.697)"/><path d="M55.4656 4.01206 56.8367 4.01206 56.8367 4.59653 55.9578 4.59653 54.0023 24.0863 53.5936 24.0863 50.8821 19.1029 50.0779 19.5248 49.9066 19.2127 51.4315 18.4085 53.6375 22.4911ZM57 4 65 4 65 5 57 5Z" fill-rule="evenodd" transform="matrix(1 0 0 1.00207 145.531 168.697)"/><text font-family="Times New Roman,Times New Roman_MSFontService,sans-serif" font-style="italic" font-weight="400" font-size="9" transform="matrix(1 0 0 1.00207 203.12 181)">N</text><text font-family="Times New Roman,Times New Roman_MSFontService,sans-serif" font-style="italic" font-weight="400" font-size="9" transform="matrix(1 0 0 1.00207 202.288 191)">M</text><path d="M57 15 65 15 65 16 57 16Z" fill-rule="evenodd" transform="matrix(1 0 0 1.00207 145.531 168.697)"/><text font-family="Times New Roman,Times New Roman_MSFontService,sans-serif" font-weight="400" font-size="9" transform="matrix(1 0 0 1.00207 217.801 187)">Grover iterations</text><path d="M343.5 156.824C343.5 160.698 342.978 163.838 342.333 163.838L231.166 163.838C230.522 163.838 230 166.979 230 170.852 230 166.979 229.478 163.838 228.833 163.838L117.666 163.838C117.022 163.838 116.5 160.698 116.5 156.824" stroke="#000000" stroke-width="1.00165" stroke-miterlimit="8" fill="none" fill-rule="evenodd"/></g></svg>